<?xml version="1.0" encoding="UTF-8" standalone="no"?>
<!-- Generator: Adobe Illustrator 16.0.0, SVG Export Plug-In . SVG Version: 6.00 Build 0)  -->

<svg
   xmlns:dc="http://purl.org/dc/elements/1.1/"
   xmlns:cc="http://creativecommons.org/ns#"
   xmlns:rdf="http://www.w3.org/1999/02/22-rdf-syntax-ns#"
   xmlns:svg="http://www.w3.org/2000/svg"
   xmlns="http://www.w3.org/2000/svg"
   xmlns:sodipodi="http://sodipodi.sourceforge.net/DTD/sodipodi-0.dtd"
   xmlns:inkscape="http://www.inkscape.org/namespaces/inkscape"
   version="1.1"
   id="Capa_1"
   x="0px"
   y="0px"
   width="612px"
   height="612px"
   viewBox="0 0 612 612"
   style="enable-background:new 0 0 612 612;"
   xml:space="preserve"
   inkscape:version="0.91 r13725"
   sodipodi:docname="counter_icon_stopw.svg"><metadata
     id="metadata41"><rdf:RDF><cc:Work
         rdf:about=""><dc:format>image/svg+xml</dc:format><dc:type
           rdf:resource="http://purl.org/dc/dcmitype/StillImage" /><dc:title /></cc:Work></rdf:RDF></metadata><defs
     id="defs39" /><sodipodi:namedview
     pagecolor="#ffffff"
     bordercolor="#666666"
     borderopacity="1"
     objecttolerance="10"
     gridtolerance="10"
     guidetolerance="10"
     inkscape:pageopacity="0"
     inkscape:pageshadow="2"
     inkscape:window-width="1280"
     inkscape:window-height="1002"
     id="namedview37"
     showgrid="false"
     inkscape:zoom="1.0907007"
     inkscape:cx="216.65011"
     inkscape:cy="306.32228"
     inkscape:window-x="1358"
     inkscape:window-y="-8"
     inkscape:window-maximized="1"
     inkscape:current-layer="Capa_1" /><g
     id="g7" /><g
     id="g9" /><g
     id="g11" /><g
     id="g13" /><g
     id="g15" /><g
     id="g17" /><g
     id="g19" /><g
     id="g21" /><g
     id="g23" /><g
     id="g25" /><g
     id="g27" /><g
     id="g29" /><g
     id="g31" /><g
     id="g33" /><g
     id="g35" /><rect
     style="fill:#000000;fill-opacity:1;fill-rule:evenodd;stroke:#da1112;stroke-width:6;stroke-miterlimit:4;stroke-dasharray:none;stroke-opacity:1"
     id="rect4169"
     width="374.07147"
     height="374.07147"
     x="49.50946"
     y="37.140163"
     ry="87.150299"
     inkscape:export-xdpi="189.43803"
     inkscape:export-ydpi="189.43803" /><g
     inkscape:groupmode="layer"
     id="layer1"
     inkscape:label="Layer 1"
     style="display:inline" /><rect
     style="fill:#000000;fill-opacity:1;fill-rule:evenodd;stroke:#da1112;stroke-width:5.66710424;stroke-miterlimit:4;stroke-dasharray:none;stroke-opacity:1"
     id="rect4169-4"
     width="353.31702"
     height="353.31702"
     x="59.886688"
     y="47.517391"
     ry="82.314972"
     inkscape:export-xdpi="189.43803"
     inkscape:export-ydpi="189.43803" /><g
     id="g3-2-9"
     transform="matrix(0.4125569,0,0,0.4125569,110.30258,97.933525)"
     style="fill:#ffffff;fill-opacity:1"
     inkscape:export-xdpi="189.43803"
     inkscape:export-ydpi="189.43803"><path
       d="m 543.981,160.777 -18.297,18.571 c 44.158,52.077 68.485,121.464 61.039,196.445 C 574.408,499.795 473.933,599.459 349.843,610.861 203.155,624.34 78.073,516.49 63.563,376.311 l -25.851,0 c -15.717,0 -25.54,-17.015 -17.681,-30.626 L 77.85,245.565 c 7.859,-13.609 27.503,-13.608 35.361,0.001 l 57.806,100.122 c 7.859,13.61 -1.964,30.624 -17.681,30.624 l -22.505,0 C 145.453,480.97 242.888,559.464 354.603,543.09 437.271,530.974 504.325,465.753 518.376,383.393 539.407,260.122 444.548,152.835 325.105,152.835 c -38.734,0 -76.119,11.237 -108.234,32.52 -14.904,9.876 -35.564,7.922 -46.498,-6.224 -11.906,-15.401 -8.188,-37.389 7.687,-48.109 34.455,-23.276 73.515,-37.822 114.438,-42.886 l 0,-37.952 -26.784,0 c -9.216,0 -16.686,-7.47 -16.686,-16.686 l 0,-16.812 C 249.028,7.471 256.5,0 265.714,0 l 124.21,0 c 9.216,0 16.686,7.471 16.686,16.686 l 0,16.812 c 0,9.215 -7.47,16.686 -16.686,16.686 l -29.501,0 0,38.348 c 52.534,7.088 100.161,29.78 138.142,63.186 L 515.54,134.489 503.101,122.99 c -6.767,-6.254 -7.183,-16.812 -0.927,-23.579 l 13.31,-14.4 c 6.255,-6.768 16.812,-7.183 23.579,-0.928 l 50.312,46.505 c 6.769,6.255 7.183,16.812 0.929,23.579 l -13.31,14.399 c -6.255,6.767 -16.812,7.183 -23.579,0.928 l -9.434,-8.717 z M 361.604,314.24 c -23.084,-23.57 -62.787,-21.009 -82.25,8.07 -11.684,17.455 -11.505,41.047 0.298,58.42 14.344,21.111 39.598,27.998 61.139,20.692 l 67.067,54.629 c 12.822,10.443 29.816,-6.398 19.489,-19.313 L 373.5,369.393 c 6.724,-18.549 2.833,-40.113 -11.896,-55.153 z"
       id="path5-5-4"
       inkscape:connector-curvature="0"
       style="fill:#ffffff;fill-opacity:1" /></g></svg>